<svg xmlns="http://www.w3.org/2000/svg" width="1600" height="960" viewBox="0 0 1600 960">
  <defs>
    <marker id="a" viewBox="0 0 10 10" refX="9" refY="5"
      markerWidth="6" markerHeight="6" orient="auto">
      <path d="M 0 0 L 10 5 L 0 10 z" fill="#3b82f6"/>
    </marker>
    <marker id="a2" viewBox="0 0 10 10" refX="9" refY="5"
      markerWidth="6" markerHeight="6" orient="auto">
      <path d="M 0 0 L 10 5 L 0 10 z" fill="#f97316"/>
    </marker>
    <marker id="a3" viewBox="0 0 10 10" refX="9" refY="5"
      markerWidth="6" markerHeight="6" orient="auto">
      <path d="M 0 0 L 10 5 L 0 10 z" fill="#a855f7"/>
    </marker>
    <marker id="dash" viewBox="0 0 10 10" refX="9" refY="5"
      markerWidth="6" markerHeight="6" orient="auto">
      <path d="M 0 0 L 10 5 L 0 10 z" fill="#64748b"/>
    </marker>
    <filter id="glow" x="-20%" y="-20%" width="140%" height="140%">
      <feGaussianBlur stdDeviation="3" result="blur"/>
      <feComposite in="SourceGraphic" in2="blur" operator="over"/>
    </filter>
  </defs>

  <!-- Background -->
  <rect width="1600" height="960" fill="#020617"/>

  <!-- Title -->
  <text x="800" y="38" text-anchor="middle" fill="#ffffff" font-size="22" font-weight="bold" font-family="Segoe UI, Arial, sans-serif">SKYSEARCH Production Architecture - Multi-Region Billions-scale Deployment</text>
  <line x1="40" y1="55" x2="1560" y2="55" stroke="#1e293b" stroke-width="1"/>

  <!-- Subgraph: Clients -->
  <rect x="40" y="70" width="380" height="140" rx="12" fill="#0B0F19" stroke="#1e293b" stroke-width="2"/>
  <text x="230" y="95" text-anchor="middle" fill="#e2e8f0" font-size="13" font-weight="bold" font-family="Segoe UI, Arial, sans-serif">CLIENT TIER</text>
  <rect x="65" y="115" width="130" height="70" rx="8" fill="#111" stroke="#334155"/>
  <text x="130" y="150" text-anchor="middle" fill="#fff" font-size="12" font-family="Segoe UI, Arial, sans-serif">User Devices</text>
  <text x="130" y="168" text-anchor="middle" fill="#94a3b8" font-size="11" font-family="Segoe UI, Arial, sans-serif">Browser / Mobile</text>
  <rect x="215" y="115" width="130" height="70" rx="8" fill="#111" stroke="#334155"/>
  <text x="280" y="150" text-anchor="middle" fill="#fff" font-size="12" font-family="Segoe UI, Arial, sans-serif">Edge Cache</text>
  <text x="280" y="168" text-anchor="middle" fill="#94a3b8" font-size="11" font-family="Segoe UI, Arial, sans-serif">CDN Static Assets</text>

  <!-- Subgraph: Edge -->
  <rect x="440" y="70" width="380" height="140" rx="12" fill="#0B0F19" stroke="#1e293b" stroke-width="2"/>
  <text x="630" y="95" text-anchor="middle" fill="#e2e8f0" font-size="13" font-weight="bold" font-family="Segoe UI, Arial, sans-serif">EDGE TIER</text>
  <rect x="465" y="115" width="130" height="70" rx="8" fill="#0f172a" stroke="#eab308" stroke-width="2"/>
  <text x="530" y="150" text-anchor="middle" fill="#fff" font-size="12" font-family="Segoe UI, Arial, sans-serif">CloudFront</text>
  <text x="530" y="168" text-anchor="middle" fill="#94a3b8" font-size="11" font-family="Segoe UI, Arial, sans-serif">Geo-distributed</text>
  <rect x="615" y="115" width="130" height="70" rx="8" fill="#0f172a" stroke="#ef4444" stroke-width="2"/>
  <text x="680" y="150" text-anchor="middle" fill="#fff" font-size="12" font-family="Segoe UI, Arial, sans-serif">WAF + DDoS</text>
  <text x="680" y="168" text-anchor="middle" fill="#94a3b8" font-size="11" font-family="Segoe UI, Arial, sans-serif">Rate limit shield</text>

  <!-- Subgraph: LB -->
  <rect x="840" y="70" width="380" height="140" rx="12" fill="#0B0F19" stroke="#1e293b" stroke-width="2"/>
  <text x="1030" y="95" text-anchor="middle" fill="#e2e8f0" font-size="13" font-weight="bold" font-family="Segoe UI, Arial, sans-serif">LOAD BALANCER</text>
  <rect x="865" y="115" width="130" height="70" rx="8" fill="#0f172a" stroke="#3b82f6" stroke-width="2"/>
  <text x="930" y="150" text-anchor="middle" fill="#fff" font-size="12" font-family="Segoe UI, Arial, sans-serif">Global LB</text>
  <text x="930" y="168" text-anchor="middle" fill="#94a3b8" font-size="11" font-family="Segoe UI, Arial, sans-serif">Anycast DNS</text>
  <rect x="1015" y="115" width="130" height="70" rx="8" fill="#0f172a" stroke="#3b82f6" stroke-width="2"/>
  <text x="1080" y="150" text-anchor="middle" fill="#fff" font-size="12" font-family="Segoe UI, Arial, sans-serif">ALB</text>
  <text x="1080" y="168" text-anchor="middle" fill="#94a3b8" font-size="11" font-family="Segoe UI, Arial, sans-serif">Auto Scaling</text>

  <!-- Subgraph: App Tier -->
  <rect x="40" y="240" width="1180" height="200" rx="12" fill="#0B0F19" stroke="#1e293b" stroke-width="2"/>
  <text x="630" y="265" text-anchor="middle" fill="#e2e8f0" font-size="13" font-weight="bold" font-family="Segoe UI, Arial, sans-serif">APPLICATION TIER - US-EAST-1</text>

  <rect x="65" y="290" width="240" height="70" rx="8" fill="#0f172a" stroke="#22c55e" stroke-width="2"/>
  <text x="185" y="320" text-anchor="middle" fill="#fff" font-size="12" font-family="Segoe UI, Arial, sans-serif">API Gateway #1</text>
  <text x="185" y="340" text-anchor="middle" fill="#94a3b8" font-size="11" font-family="Segoe UI, Arial, sans-serif">port 3000 - Req ID + Auth</text>

  <rect x="340" y="290" width="240" height="70" rx="8" fill="#0f172a" stroke="#22c55e" stroke-width="2"/>
  <text x="460" y="320" text-anchor="middle" fill="#fff" font-size="12" font-family="Segoe UI, Arial, sans-serif">API Gateway #2</text>
  <text x="460" y="340" text-anchor="middle" fill="#94a3b8" font-size="11" font-family="Segoe UI, Arial, sans-serif">port 3000 - Rate limit</text>

  <rect x="615" y="290" width="240" height="70" rx="8" fill="#0f172a" stroke="#22c55e" stroke-width="2"/>
  <text x="735" y="320" text-anchor="middle" fill="#fff" font-size="12" font-family="Segoe UI, Arial, sans-serif">API Gateway #3</text>
  <text x="735" y="340" text-anchor="middle" fill="#94a3b8" font-size="11" font-family="Segoe UI, Arial, sans-serif">port 3000 - AI summary</text>

  <rect x="890" y="290" width="240" height="70" rx="8" fill="#0f172a" stroke="#22c55e" stroke-width="2"/>
  <text x="1010" y="320" text-anchor="middle" fill="#fff" font-size="12" font-family="Segoe UI, Arial, sans-serif">API Gateway #4</text>
  <text x="1010" y="340" text-anchor="middle" fill="#94a3b8" font-size="11" font-family="Segoe UI, Arial, sans-serif">port 3000 - Health</text>

  <rect x="340" y="390" width="240" height="70" rx="8" fill="#0f172a" stroke="#22c55e" stroke-width="2"/>
  <text x="460" y="420" text-anchor="middle" fill="#fff" font-size="12" font-family="Segoe UI, Arial, sans-serif">Search Service</text>
  <text x="460" y="440" text-anchor="middle" fill="#94a3b8" font-size="11" font-family="Segoe UI, Arial, sans-serif">port 3001 - Cached queries</text>

  <rect x="615" y="390" width="240" height="70" rx="8" fill="#0f172a" stroke="#22c55e" stroke-width="2"/>
  <text x="735" y="420" text-anchor="middle" fill="#fff" font-size="12" font-family="Segoe UI, Arial, sans-serif">Ranking Service</text>
  <text x="735" y="440" text-anchor="middle" fill="#94a3b8" font-size="11" font-family="Segoe UI, Arial, sans-serif">port 4000 - BM25 + Boost</text>

  <!-- Subgraph: Data Tier -->
  <rect x="1240" y="240" width="340" height="360" rx="12" fill="#0B0F19" stroke="#1e293b" stroke-width="2"/>
  <text x="1410" y="265" text-anchor="middle" fill="#e2e8f0" font-size="13" font-weight="bold" font-family="Segoe UI, Arial, sans-serif">DATA TIER</text>

  <rect x="1265" y="290" width="290" height="70" rx="8" fill="#0f172a" stroke="#a855f7" stroke-width="2"/>
  <text x="1410" y="320" text-anchor="middle" fill="#fff" font-size="12" font-family="Segoe UI, Arial, sans-serif">Redis Cluster</text>
  <text x="1410" y="340" text-anchor="middle" fill="#94a3b8" font-size="11" font-family="Segoe UI, Arial, sans-serif">2 shards + replicas</text>

  <rect x="1265" y="390" width="290" height="70" rx="8" fill="#0f172a" stroke="#a855f7" stroke-width="2"/>
  <text x="1410" y="420" text-anchor="middle" fill="#fff" font-size="12" font-family="Segoe UI, Arial, sans-serif">Elasticsearch Cluster</text>
  <text x="1410" y="440" text-anchor="middle" fill="#94a3b8" font-size="11" font-family="Segoe UI, Arial, sans-serif">3 master + 5 data + 2 ml</text>

  <rect x="1265" y="490" width="290" height="70" rx="8" fill="#0f172a" stroke="#f97316" stroke-width="2"/>
  <text x="1410" y="520" text-anchor="middle" fill="#fff" font-size="12" font-family="Segoe UI, Arial, sans-serif">Kafka Cluster</text>
  <text x="1410" y="540" text-anchor="middle" fill="#94a3b8" font-size="11" font-family="Segoe UI, Arial, sans-serif">3 brokers - crawl-data</text>

  <!-- Subgraph: Async Workers -->
  <rect x="40" y="460" width="1180" height="200" rx="12" fill="#0B0F19" stroke="#1e293b" stroke-width="2"/>
  <text x="630" y="485" text-anchor="middle" fill="#e2e8f0" font-size="13" font-weight="bold" font-family="Segoe UI, Arial, sans-serif">ASYNC WORKER TIER</text>

  <rect x="65" y="510" width="240" height="70" rx="8" fill="#0f172a" stroke="#ec4899" stroke-width="2"/>
  <text x="185" y="540" text-anchor="middle" fill="#fff" font-size="12" font-family="Segoe UI, Arial, sans-serif">Crawler Service</text>
  <text x="185" y="560" text-anchor="middle" fill="#94a3b8" font-size="11" font-family="Segoe UI, Arial, sans-serif">20 instances - port 3002</text>

  <rect x="340" y="510" width="240" height="70" rx="8" fill="#0f172a" stroke="#ec4899" stroke-width="2"/>
  <text x="460" y="540" text-anchor="middle" fill="#fff" font-size="12" font-family="Segoe UI, Arial, sans-serif">Indexer Service</text>
  <text x="460" y="560" text-anchor="middle" fill="#94a3b8" font-size="11" font-family="Segoe UI, Arial, sans-serif">10 instances - port 3003</text>

  <rect x="615" y="510" width="240" height="70" rx="8" fill="#0f172a" stroke="#ec4899" stroke-width="2"/>
  <text x="735" y="540" text-anchor="middle" fill="#fff" font-size="12" font-family="Segoe UI, Arial, sans-serif">Ingestion Service</text>
  <text x="735" y="560" text-anchor="middle" fill="#94a3b8" font-size="11" font-family="Segoe UI, Arial, sans-serif">10 instances - port 3004</text>

  <rect x="890" y="510" width="240" height="70" rx="8" fill="#0f172a" stroke="#ec4899" stroke-width="2"/>
  <text x="1010" y="540" text-anchor="middle" fill="#fff" font-size="12" font-family="Segoe UI, Arial, sans-serif">Scheduler</text>
  <text x="1010" y="560" text-anchor="middle" fill="#94a3b8" font-size="11" font-family="Segoe UI, Arial, sans-serif">Cron + Queue</text>

  <!-- Subgraph: Multi-Region -->
  <rect x="40" y="680" width="380" height="120" rx="12" fill="#0B0F19" stroke="#1e293b" stroke-width="2"/>
  <text x="230" y="705" text-anchor="middle" fill="#e2e8f0" font-size="13" font-weight="bold" font-family="Segoe UI, Arial, sans-serif">MULTI-REGION</text>
  <rect x="65" y="720" width="130" height="60" rx="8" fill="#0f172a" stroke="#a855f7" stroke-width="2" stroke-dasharray="5,3"/>
  <text x="130" y="750" text-anchor="middle" fill="#fff" font-size="12" font-family="Segoe UI, Arial, sans-serif">EU-West-1</text>
  <text x="130" y="768" text-anchor="middle" fill="#94a3b8" font-size="11" font-family="Segoe UI, Arial, sans-serif">ES Read Replica</text>
  <rect x="215" y="720" width="130" height="60" rx="8" fill="#0f172a" stroke="#a855f7" stroke-width="2" stroke-dasharray="5,3"/>
  <text x="280" y="750" text-anchor="middle" fill="#fff" font-size="12" font-family="Segoe UI, Arial, sans-serif">AP-South-1</text>
  <text x="280" y="768" text-anchor="middle" fill="#94a3b8" font-size="11" font-family="Segoe UI, Arial, sans-serif">ES Read Replica</text>

  <line x1="1100" y1="750" x2="1240" y2="750" stroke="#a855f7" stroke-width="2" stroke-dasharray="5,3" marker-end="url(#a3)"/>

  <!-- Subgraph: Observability -->
  <rect x="440" y="680" width="780" height="120" rx="12" fill="#0B0F19" stroke="#1e293b" stroke-width="2"/>
  <text x="830" y="705" text-anchor="middle" fill="#e2e8f0" font-size="13" font-weight="bold" font-family="Segoe UI, Arial, sans-serif">OBSERVABILITY & CONTROL PLANE</text>
  <rect x="465" y="720" width="130" height="60" rx="8" fill="#0f172a" stroke="#64748b" stroke-width="2"/>
  <text x="530" y="750" text-anchor="middle" fill="#fff" font-size="12" font-family="Segoe UI, Arial, sans-serif">Prometheus</text>
  <text x="530" y="768" text-anchor="middle" fill="#94a3b8" font-size="11" font-family="Segoe UI, Arial, sans-serif">Metrics</text>
  <rect x="615" y="720" width="130" height="60" rx="8" fill="#0f172a" stroke="#64748b" stroke-width="2"/>
  <text x="680" y="750" text-anchor="middle" fill="#fff" font-size="12" font-family="Segoe UI, Arial, sans-serif">Grafana</text>
  <text x="680" y="768" text-anchor="middle" fill="#94a3b8" font-size="11" font-family="Segoe UI, Arial, sans-serif">Dashboards</text>
  <rect x="765" y="720" width="130" height="60" rx="8" fill="#0f172a" stroke="#64748b" stroke-width="2"/>
  <text x="830" y="750" text-anchor="middle" fill="#fff" font-size="12" font-family="Segoe UI, Arial, sans-serif">OpenTelemetry</text>
  <text x="830" y="768" text-anchor="middle" fill="#94a3b8" font-size="11" font-family="Segoe UI, Arial, sans-serif">Traces</text>
  <rect x="915" y="720" width="130" height="60" rx="8" fill="#0f172a" stroke="#64748b" stroke-width="2"/>
  <text x="980" y="750" text-anchor="middle" fill="#fff" font-size="12" font-family="Segoe UI, Arial, sans-serif">Vault</text>
  <text x="980" y="768" text-anchor="middle" fill="#94a3b8" font-size="11" font-family="Segoe UI, Arial, sans-serif">Secrets</text>

  <!-- Connections - solid -->
  <!-- Client -> CDN -->
  <line x1="80" y1="140" x2="80" y2="115" stroke="#3b82f6" stroke-width="2" marker-end="url(#a)"/>
  <line x1="80" y1="115" x2="130" y2="115" stroke="#3b82f6" stroke-width="2" marker-end="url(#a)"/>
  <text x="60" y="130" text-anchor="middle" fill="#3b82f6" font-size="10" font-family="Segoe UI, Arial, sans-serif">HTTPS</text>

  <!-- CDN -> WAF -->
  <line x1="280" y1="115" x2="380" y2="115" stroke="#3b82f6" stroke-width="2" marker-end="url(#a)"/>
  <line x1="380" y1="115" x2="380" y2="520" stroke="#3b82f6" stroke-width="2"/>

  <!-- WAF -> LB -->
  <line x1="680" y1="115" x2="780" y2="115" stroke="#3b82f6" stroke-width="2" marker-end="url(#a)"/>
  <line x1="780" y1="115" x2="780" y2="325" stroke="#3b82f6" stroke-width="2" marker-end="url(#a)"/>

  <!-- ALB -> Gateway -->
  <line x1="930" y1="185" x2="930" y2="290" stroke="#3b82f6" stroke-width="2" marker-end="url(#a)"/>
  <line x1="930" y1="325" x2="185" y2="325" stroke="#3b82f6" stroke-width="2"/>
  <text x="550" y="318" text-anchor="middle" fill="#3b82f6" font-size="10" font-family="Segoe UI, Arial, sans-serif">Round-robin</text>
  <line x1="185" y1="325" x2="185" y2="360" stroke="#3b82f6" stroke-width="2" marker-end="url(#a)"/>
  <line x1="460" y1="325" x2="460" y2="390" stroke="#3b82f6" stroke-width="2" marker-end="url(#a)"/>
  <line x1="735" y1="325" x2="735" y2="360" stroke="#3b82f6" stroke-width="2" marker-end="url(#a)"/>
  <line x1="1010" y1="325" x2="1010" y2="360" stroke="#3b82f6" stroke-width="2" marker-end="url(#a)"/>

  <!-- Gateway -> Search -->
  <line x1="460" y1="360" x2="460" y2="425" stroke="#22c55e" stroke-width="2" marker-end="url(#a2)"/>
  <line x1="735" y1="360" x2="735" y2="425" stroke="#22c55e" stroke-width="2" marker-end="url(#a2)"/>
  <line x1="1010" y1="360" x2="1010" y2="425" stroke="#22c55e" stroke-width="2" marker-end="url(#a2)"/>
  <text x="780" y="395" text-anchor="middle" fill="#22c55e" font-size="10" font-family="Segoe UI, Arial, sans-serif">gRPC / HTTP</text>

  <!-- Search -> Redis -->
  <line x1="460" y1="460" x2="1410" y2="460" stroke="#a855f7" stroke-width="2"/>
  <line x1="1410" y1="460" x2="1410" y2="360" stroke="#a855f7" stroke-width="2" marker-end="url(#a3)"/>
  <text x="940" y="455" text-anchor="middle" fill="#a855f7" font-size="10" font-family="Segoe UI, Arial, sans-serif">Cache lookup / Store</text>

  <!-- Search -> Ranking -->
  <line x1="580" y1="425" x2="580" y2="425" stroke="#22c55e" stroke-width="2"/>
  <line x1="735" y1="425" x2="735" y2="460" stroke="#22c55e" stroke-width="2" marker-end="url(#a2)"/>
  <text x="780" y="415" text-anchor="middle" fill="#22c55e" font-size="10" font-family="Segoe UI, Arial, sans-serif">Rank</text>

  <!-- Ranking -> ES -->
  <line x1="735" y1="525" x2="735" y2="460" stroke="#a855f7" stroke-width="2" marker-end="url(#a3)"/>
  <text x="760" y="405" text-anchor="middle" fill="#a855f7" font-size="10" font-family="Segoe UI, Arial, sans-serif">ES query + BM25</text>

  <!-- Crawler -> Kafka -->
  <line x1="185" y1="550" x2="185" y2="400" stroke="#f97316" stroke-width="2"/>
  <line x1="185" y1="400" x2="1410" y2="400" stroke="#f97316" stroke-width="2" marker-end="url(#a2)"/>
  <text x="800" y="393" text-anchor="middle" fill="#f97316" font-size="10" font-family="Segoe UI, Arial, sans-serif">crawl-data topic</text>

  <!-- Kafka -> Indexer -->
  <line x1="1410" y1="560" x2="1410" y2="510" stroke="#f97316" stroke-width="2" marker-end="url(#a2)"/>

  <!-- Indexer -> ES -->
  <line x1="1410" y1="560" x2="1410" y2="425" stroke="#a855f7" stroke-width="2" marker-end="url(#a3)"/>

  <!-- Observability connections (dashed) -->
  <line x1="185" y1="360" x2="530" y2="720" stroke="#64748b" stroke-width="1.5" stroke-dasharray="5,3"/>
  <line x1="460" y1="455" x2="530" y2="720" stroke="#64748b" stroke-width="1.5" stroke-dasharray="5,3"/>
  <line x1="735" y1="555" x2="830" y2="780" stroke="#64748b" stroke-width="1.5" stroke-dasharray="5,3"/>
  <line x1="1410" y1="425" x2="830" y2="780" stroke="#64748b" stroke-width="1.5" stroke-dasharray="5,3"/>
  <line x1="185" y1="360" x2="980" y2="780" stroke="#64748b" stroke-width="1.5" stroke-dasharray="5,3"/>

  <!-- Multi-region replication arrow -->
  <line x1="1410" y1="490" x2="1410" y2="460" stroke="#a855f7" stroke-width="2" stroke-dasharray="5,3" marker-end="url(#a3)"/>
  <text x="1430" y="485" fill="#a855f7" font-size="10" font-family="Segoe UI, Arial, sans-serif">CCR</text>

  <!-- Ingress arrow at the top right -->
  <polygon points="1560,420 1545,410 1545,430" fill="#3b82f6"/>
  <text x="1545" y="440" text-anchor="middle" fill="#3b82f6" font-size="10" font-family="Segoe UI, Arial, sans-serif">LB</text>

  <line x1="1410" y1="460" x2="1540" y2="460" stroke="#3b82f6" stroke-width="2"/>

</svg>
